<svg width="219" height="40" viewBox="0 0 219 40" fill="none" xmlns="http://www.w3.org/2000/svg">
<path d="M14.6997 15.2543C15.553 16.7324 14.4864 18.58 12.7798 18.58H2.22023C0.513642 18.58 -0.552975 16.7323 0.300319 15.2543L5.58009 6.10858C6.43338 4.63047 8.56662 4.63047 9.41991 6.10858L14.6997 15.2543Z" fill="#00CD81"/>
<path d="M17.5801 27.5284C18.4334 26.0504 20.5666 26.0504 21.4199 27.5284L26.6997 36.6732C27.553 38.1511 26.4864 39.9986 24.7798 39.9986H14.2202C12.5136 39.9986 11.447 38.1511 12.3003 36.6732L17.5801 27.5284Z" fill="#E6FAF2"/>
<path d="M21.4199 12.4702C20.5666 13.9482 18.4334 13.9482 17.5801 12.4702L12.3003 3.32539C11.447 1.84742 12.5136 0 14.2202 0H24.7798C26.4864 0 27.553 1.84742 26.6997 3.32539L21.4199 12.4702Z" fill="#007B4D"/>
<path d="M12.7798 22C14.4864 22 15.553 23.8476 14.6997 25.3257L9.41991 34.4714C8.56662 35.9495 6.43338 35.9495 5.58009 34.4714L0.300319 25.3257C-0.552975 23.8476 0.513642 22 2.22023 22H12.7798Z" fill="#99EBCD"/>
<path d="M60.5585 11.9702V30H57.6034V18.3542C57.6034 17.8887 57.6283 17.3858 57.6782 16.8455L52.2293 27.0823C51.9717 27.5727 51.5768 27.818 51.0448 27.818H50.571C50.039 27.818 49.6442 27.5727 49.3865 27.0823L43.8753 16.8081C43.9002 17.0824 43.921 17.3525 43.9376 17.6185C43.9543 17.8845 43.9626 18.1297 43.9626 18.3542V30H41.0075V11.9702H43.5386C43.6883 11.9702 43.8171 11.9743 43.9252 11.9827C44.0332 11.991 44.1288 12.0117 44.2119 12.045C44.3034 12.0782 44.3823 12.1323 44.4488 12.2071C44.5237 12.2819 44.5943 12.3817 44.6608 12.5063L50.0598 22.5187C50.2011 22.7847 50.3299 23.0591 50.4463 23.3417C50.571 23.6243 50.6915 23.9152 50.8079 24.2145C50.9243 23.9069 51.0448 23.6118 51.1695 23.3292C51.2942 23.0383 51.4272 22.7598 51.5685 22.4938L56.8927 12.5063C56.9592 12.3817 57.0298 12.2819 57.1046 12.2071C57.1794 12.1323 57.2584 12.0782 57.3415 12.045C57.433 12.0117 57.5327 11.991 57.6408 11.9827C57.7488 11.9743 57.8777 11.9702 58.0273 11.9702H60.5585ZM70.5364 24.5387C69.647 24.5802 68.8988 24.6592 68.292 24.7756C67.6852 24.8837 67.1989 25.025 66.8332 25.1995C66.4674 25.3741 66.2056 25.5777 66.0476 25.8105C65.8897 26.0432 65.8107 26.2968 65.8107 26.5711C65.8107 27.1114 65.9687 27.4979 66.2845 27.7307C66.6087 27.9634 67.0285 28.0798 67.5439 28.0798C68.1756 28.0798 68.7201 27.9676 69.1773 27.7432C69.6428 27.5104 70.0958 27.1613 70.5364 26.6958V24.5387ZM63.4791 18.9901C64.9504 17.6435 66.721 16.9702 68.7908 16.9702C69.5389 16.9702 70.208 17.0948 70.7982 17.3442C71.3884 17.5853 71.8872 17.9261 72.2945 18.3667C72.7018 18.7989 73.0094 19.3184 73.2172 19.9252C73.4333 20.5321 73.5414 21.1971 73.5414 21.9202V30H72.1449C71.8539 30 71.6295 29.9584 71.4715 29.8753C71.3136 29.7839 71.1889 29.6052 71.0975 29.3392L70.8232 28.4165C70.499 28.7074 70.1831 28.9651 69.8755 29.1895C69.568 29.4057 69.248 29.5885 68.9155 29.7382C68.583 29.8878 68.2255 30 67.8431 30.0748C67.4691 30.1579 67.0535 30.1995 66.5963 30.1995C66.056 30.1995 65.5572 30.1288 65.1 29.9875C64.6428 29.8379 64.248 29.6176 63.9155 29.3267C63.583 29.0357 63.3253 28.6742 63.1424 28.2419C62.9595 27.8097 62.8681 27.3067 62.8681 26.7332C62.8681 26.409 62.9221 26.089 63.0302 25.7731C63.1383 25.4489 63.3128 25.1413 63.5539 24.8504C63.8033 24.5595 64.1233 24.2852 64.514 24.0275C64.9047 23.7698 65.3826 23.5453 65.9479 23.3542C66.5215 23.163 67.1865 23.0092 67.9429 22.8928C68.6993 22.7681 69.5638 22.6933 70.5364 22.6684V21.9202C70.5364 21.0641 70.3535 20.4323 69.9878 20.025C69.622 19.6094 69.0942 19.4016 68.4042 19.4016C67.9055 19.4016 67.4899 19.4597 67.1574 19.5761C66.8332 19.6925 66.5464 19.8255 66.297 19.9751C66.0476 20.1164 65.819 20.2453 65.6112 20.3617C65.4117 20.478 65.1873 20.5362 64.9379 20.5362C64.7218 20.5362 64.5389 20.4822 64.3893 20.3741C64.2397 20.2577 64.1191 20.1247 64.0277 19.9751L63.4791 18.9901ZM80.5357 30.1995C79.4219 30.1995 78.5657 29.8878 77.9672 29.2643C77.377 28.6326 77.0819 27.7639 77.0819 26.6584V19.5138H75.7727C75.6064 19.5138 75.4651 19.4597 75.3487 19.3517C75.2324 19.2436 75.1742 19.0815 75.1742 18.8654V17.6435L77.2315 17.3068L77.8799 13.8156C77.9215 13.6493 78.0004 13.5205 78.1168 13.429C78.2332 13.3376 78.3828 13.2919 78.5657 13.2919H80.1617V17.3193H83.5781V19.5138H80.1617V26.4464C80.1617 26.8454 80.2573 27.1571 80.4485 27.3816C80.648 27.606 80.9181 27.7182 81.2589 27.7182C81.4501 27.7182 81.6081 27.6974 81.7327 27.6559C81.8657 27.606 81.978 27.5561 82.0694 27.5062C82.1692 27.4564 82.2564 27.4107 82.3312 27.3691C82.4061 27.3192 82.4809 27.2943 82.5557 27.2943C82.6471 27.2943 82.7219 27.3192 82.7801 27.3691C82.8383 27.4107 82.9007 27.4772 82.9672 27.5686L83.8898 29.0648C83.441 29.4389 82.9256 29.7215 82.3437 29.9127C81.7618 30.1039 81.1592 30.1995 80.5357 30.1995ZM93.6944 22.1322C93.6944 21.7332 93.6362 21.3592 93.5198 21.01C93.4117 20.6526 93.2455 20.3409 93.0211 20.0749C92.7966 19.8089 92.5098 19.6011 92.1607 19.4514C91.8199 19.2935 91.4209 19.2145 90.9637 19.2145C90.0743 19.2145 89.3719 19.4681 88.8565 19.9751C88.3494 20.4822 88.0252 21.2012 87.8839 22.1322H93.6944ZM87.8216 23.9901C87.8715 24.6467 87.9878 25.2162 88.1707 25.6983C88.3536 26.1721 88.5946 26.5669 88.8939 26.8828C89.1931 27.1904 89.5464 27.4231 89.9537 27.5811C90.3694 27.7307 90.8266 27.8055 91.3253 27.8055C91.8241 27.8055 92.2521 27.7473 92.6096 27.6309C92.9753 27.5146 93.2912 27.3857 93.5572 27.2444C93.8315 27.1031 94.0684 26.9742 94.2679 26.8579C94.4757 26.7415 94.6752 26.6833 94.8664 26.6833C95.1241 26.6833 95.3153 26.7789 95.44 26.9701L96.3253 28.0923C95.9845 28.4913 95.6021 28.8279 95.1781 29.1022C94.7542 29.3682 94.3095 29.5844 93.844 29.7506C93.3868 29.9086 92.9171 30.0208 92.435 30.0873C91.9612 30.1538 91.4999 30.187 91.051 30.187C90.1616 30.187 89.3345 30.0416 88.5697 29.7506C87.805 29.4514 87.14 29.015 86.5747 28.4414C86.0095 27.8595 85.5647 27.1447 85.2406 26.2968C84.9164 25.4406 84.7543 24.4514 84.7543 23.3292C84.7543 22.4564 84.8956 21.6376 85.1782 20.8729C85.4608 20.0998 85.864 19.4307 86.3877 18.8654C86.9197 18.2918 87.5639 17.8388 88.3203 17.5063C89.0851 17.1738 89.9454 17.0076 90.9014 17.0076C91.7077 17.0076 92.4516 17.1364 93.1333 17.3941C93.8149 17.6518 94.4009 18.03 94.8914 18.5287C95.3818 19.0192 95.7642 19.626 96.0385 20.3492C96.3211 21.0641 96.4624 21.8828 96.4624 22.8055C96.4624 23.271 96.4126 23.5869 96.3128 23.7532C96.2131 23.9111 96.0219 23.9901 95.7392 23.9901H87.8216ZM109.796 17.2071V30H107.913C107.506 30 107.248 29.813 107.14 29.4389L106.928 28.4165C106.405 28.9485 105.827 29.3807 105.195 29.7132C104.563 30.0374 103.819 30.1995 102.963 30.1995C102.265 30.1995 101.646 30.0831 101.105 29.8504C100.573 29.6093 100.124 29.2727 99.7587 28.8404C99.3929 28.4082 99.1144 27.8969 98.9233 27.3067C98.7404 26.7082 98.6489 26.0516 98.6489 25.3367V17.2071H101.729V25.3367C101.729 26.1181 101.907 26.7249 102.265 27.1571C102.631 27.5811 103.175 27.793 103.898 27.793C104.43 27.793 104.929 27.6767 105.395 27.4439C105.86 27.2028 106.301 26.8745 106.716 26.4589V17.2071H109.796ZM120.655 19.7008C120.572 19.8338 120.485 19.9294 120.393 19.9876C120.302 20.0375 120.185 20.0624 120.044 20.0624C119.895 20.0624 119.732 20.0208 119.558 19.9377C119.392 19.8546 119.196 19.7632 118.972 19.6634C118.747 19.5553 118.49 19.4597 118.199 19.3766C117.916 19.2935 117.579 19.2519 117.189 19.2519C116.582 19.2519 116.104 19.3808 115.755 19.6385C115.414 19.8962 115.244 20.2328 115.244 20.6484C115.244 20.9227 115.331 21.1555 115.506 21.3467C115.688 21.5296 115.925 21.6917 116.216 21.833C116.515 21.9743 116.852 22.1031 117.226 22.2195C117.6 22.3276 117.978 22.4481 118.361 22.5811C118.752 22.7141 119.134 22.8679 119.508 23.0424C119.882 23.2087 120.215 23.4248 120.505 23.6908C120.805 23.9485 121.042 24.2602 121.216 24.626C121.399 24.9917 121.491 25.4323 121.491 25.9477C121.491 26.5628 121.378 27.1322 121.154 27.6559C120.938 28.1712 120.614 28.6201 120.181 29.0025C119.749 29.3766 119.213 29.6717 118.573 29.8878C117.941 30.0956 117.21 30.1995 116.378 30.1995C115.938 30.1995 115.506 30.1579 115.082 30.0748C114.666 30 114.263 29.8919 113.872 29.7506C113.49 29.6093 113.132 29.4431 112.8 29.2519C112.476 29.0607 112.189 28.8529 111.939 28.6284L112.65 27.4564C112.742 27.3151 112.85 27.207 112.974 27.1322C113.099 27.0574 113.257 27.02 113.448 27.02C113.639 27.02 113.818 27.074 113.984 27.1821C114.159 27.2901 114.358 27.4065 114.583 27.5312C114.807 27.6559 115.069 27.7722 115.368 27.8803C115.676 27.9884 116.062 28.0424 116.528 28.0424C116.894 28.0424 117.205 28.0008 117.463 27.9177C117.729 27.8263 117.945 27.7099 118.111 27.5686C118.286 27.4273 118.411 27.2652 118.486 27.0823C118.569 26.8911 118.61 26.6958 118.61 26.4963C118.61 26.197 118.519 25.9518 118.336 25.7606C118.161 25.5694 117.924 25.4032 117.625 25.2619C117.334 25.1206 116.998 24.9959 116.615 24.8878C116.241 24.7714 115.855 24.6467 115.456 24.5137C115.065 24.3807 114.678 24.227 114.296 24.0524C113.922 23.8695 113.585 23.6409 113.286 23.3666C112.995 23.0923 112.758 22.7557 112.575 22.3567C112.401 21.9577 112.314 21.4755 112.314 20.9103C112.314 20.3866 112.417 19.8878 112.625 19.414C112.833 18.9402 113.136 18.5287 113.535 18.1796C113.943 17.8222 114.446 17.5396 115.044 17.3317C115.651 17.1156 116.349 17.0076 117.139 17.0076C118.02 17.0076 118.822 17.153 119.545 17.444C120.269 17.7349 120.871 18.1173 121.353 18.5911L120.655 19.7008ZM132.998 18.4789C132.998 18.695 132.961 18.907 132.886 19.1148C132.811 19.3226 132.711 19.493 132.587 19.626L126.514 27.6309H132.811V30H122.936V28.7157C122.936 28.5744 122.969 28.4082 123.035 28.217C123.102 28.0175 123.202 27.8304 123.335 27.6559L129.469 19.5637H123.297V17.2071H132.998V18.4789Z" fill="#E6FAF2"/>
<path d="M148.575 27.3816C149.198 27.3816 149.722 27.3067 150.146 27.1571C150.57 27.0075 150.906 26.808 151.156 26.5586C151.413 26.3092 151.596 26.0183 151.704 25.6858C151.821 25.3533 151.879 25 151.879 24.626C151.879 24.2353 151.816 23.8862 151.692 23.5786C151.567 23.2627 151.372 22.9967 151.106 22.7806C150.84 22.5562 150.495 22.3857 150.071 22.2694C149.655 22.153 149.152 22.0948 148.562 22.0948H145.183V27.3816H148.575ZM145.183 14.5637V19.7756H147.851C148.999 19.7756 149.863 19.5678 150.445 19.1522C151.035 18.7366 151.33 18.0757 151.33 17.1697C151.33 16.2303 151.064 15.5612 150.532 15.1622C150 14.7632 149.169 14.5637 148.038 14.5637H145.183ZM148.038 11.9702C149.219 11.9702 150.229 12.0824 151.068 12.3068C151.908 12.5313 152.594 12.8513 153.126 13.2669C153.666 13.6826 154.061 14.1855 154.31 14.7757C154.56 15.3658 154.684 16.0308 154.684 16.7707C154.684 17.1946 154.622 17.6019 154.497 17.9926C154.373 18.375 154.177 18.7366 153.911 19.0774C153.654 19.4099 153.321 19.7133 152.914 19.9876C152.515 20.2619 152.037 20.4947 151.48 20.6858C153.957 21.2428 155.196 22.5811 155.196 24.7008C155.196 25.4655 155.05 26.1721 154.759 26.8205C154.468 27.4688 154.044 28.0299 153.487 28.5037C152.93 28.9692 152.245 29.335 151.43 29.601C150.615 29.867 149.684 30 148.637 30H141.829V11.9702H148.038ZM160.729 17.2071V30H157.637V17.2071H160.729ZM161.153 13.4789C161.153 13.7449 161.099 13.9943 160.991 14.227C160.883 14.4598 160.738 14.6634 160.555 14.838C160.38 15.0126 160.173 15.1539 159.931 15.2619C159.69 15.3617 159.433 15.4116 159.158 15.4116C158.892 15.4116 158.639 15.3617 158.398 15.2619C158.165 15.1539 157.961 15.0126 157.787 14.838C157.612 14.6634 157.471 14.4598 157.363 14.227C157.263 13.9943 157.213 13.7449 157.213 13.4789C157.213 13.2046 157.263 12.9469 157.363 12.7058C157.471 12.4648 157.612 12.257 157.787 12.0824C157.961 11.9078 158.165 11.7707 158.398 11.6709C158.639 11.5629 158.892 11.5088 159.158 11.5088C159.433 11.5088 159.69 11.5629 159.931 11.6709C160.173 11.7707 160.38 11.9078 160.555 12.0824C160.738 12.257 160.883 12.4648 160.991 12.7058C161.099 12.9469 161.153 13.2046 161.153 13.4789ZM171.675 19.7008C171.592 19.8338 171.504 19.9294 171.413 19.9876C171.321 20.0375 171.205 20.0624 171.064 20.0624C170.914 20.0624 170.752 20.0208 170.577 19.9377C170.411 19.8546 170.216 19.7632 169.991 19.6634C169.767 19.5553 169.509 19.4597 169.218 19.3766C168.936 19.2935 168.599 19.2519 168.208 19.2519C167.602 19.2519 167.124 19.3808 166.774 19.6385C166.434 19.8962 166.263 20.2328 166.263 20.6484C166.263 20.9227 166.351 21.1555 166.525 21.3467C166.708 21.5296 166.945 21.6917 167.236 21.833C167.535 21.9743 167.872 22.1031 168.246 22.2195C168.62 22.3276 168.998 22.4481 169.38 22.5811C169.771 22.7141 170.154 22.8679 170.528 23.0424C170.902 23.2087 171.234 23.4248 171.525 23.6908C171.824 23.9485 172.061 24.2602 172.236 24.626C172.419 24.9917 172.51 25.4323 172.51 25.9477C172.51 26.5628 172.398 27.1322 172.173 27.6559C171.957 28.1712 171.633 28.6201 171.201 29.0025C170.769 29.3766 170.232 29.6717 169.592 29.8878C168.961 30.0956 168.229 30.1995 167.398 30.1995C166.957 30.1995 166.525 30.1579 166.101 30.0748C165.686 30 165.282 29.8919 164.892 29.7506C164.509 29.6093 164.152 29.4431 163.819 29.2519C163.495 29.0607 163.208 28.8529 162.959 28.6284L163.67 27.4564C163.761 27.3151 163.869 27.207 163.994 27.1322C164.119 27.0574 164.277 27.02 164.468 27.02C164.659 27.02 164.838 27.074 165.004 27.1821C165.178 27.2901 165.378 27.4065 165.602 27.5312C165.827 27.6559 166.089 27.7722 166.388 27.8803C166.696 27.9884 167.082 28.0424 167.548 28.0424C167.913 28.0424 168.225 28.0008 168.483 27.9177C168.749 27.8263 168.965 27.7099 169.131 27.5686C169.306 27.4273 169.43 27.2652 169.505 27.0823C169.588 26.8911 169.63 26.6958 169.63 26.4963C169.63 26.197 169.538 25.9518 169.356 25.7606C169.181 25.5694 168.944 25.4032 168.645 25.2619C168.354 25.1206 168.017 24.9959 167.635 24.8878C167.261 24.7714 166.874 24.6467 166.475 24.5137C166.085 24.3807 165.698 24.227 165.316 24.0524C164.942 23.8695 164.605 23.6409 164.306 23.3666C164.015 23.0923 163.778 22.7557 163.595 22.3567C163.42 21.9577 163.333 21.4755 163.333 20.9103C163.333 20.3866 163.437 19.8878 163.645 19.414C163.853 18.9402 164.156 18.5287 164.555 18.1796C164.962 17.8222 165.465 17.5396 166.064 17.3317C166.671 17.1156 167.369 17.0076 168.159 17.0076C169.04 17.0076 169.842 17.153 170.565 17.444C171.288 17.7349 171.891 18.1173 172.373 18.5911L171.675 19.7008Z" fill="#00CD81"/>
</svg>
